<?xml version="1.0" encoding="utf-8"?>
<!-- Generator: Adobe Illustrator 26.2.1, SVG Export Plug-In . SVG Version: 6.00 Build 0)  -->
<svg version="1.1" xmlns="http://www.w3.org/2000/svg" xmlns:xlink="http://www.w3.org/1999/xlink" x="0px" y="0px"
	 viewBox="0 0 1543.1 779.3" style="enable-background:new 0 0 1543.1 779.3;" xml:space="preserve">
<style type="text/css">
	.st0{fill:url(#SVGID_1_);}
	.st1{fill:#002F49;}
	.st2{fill:#13D6A3;}
	.st3{fill:#002F49;stroke:#13D6A3;stroke-width:15;stroke-miterlimit:10;}
	.st4{fill:#002F49;stroke:#002F49;stroke-miterlimit:10;}
	.st5{fill:#FFFFFF;}
	.st6{fill:#33313F;}
	.st7{fill:none;stroke:#002F49;stroke-miterlimit:10;}
	.st8{fill:none;stroke:#13D6A3;stroke-width:12;stroke-linecap:square;stroke-linejoin:bevel;stroke-miterlimit:10;}
	.st9{fill:none;stroke:#13D6A3;stroke-width:12;stroke-miterlimit:10;}
	.st10{fill:none;stroke:#13D6A3;stroke-width:12;stroke-linejoin:bevel;stroke-miterlimit:10;}
	.st11{fill:none;stroke:#231F20;stroke-width:12;stroke-miterlimit:10;}
	.st12{fill:none;stroke:#13D6A3;stroke-width:16;stroke-linecap:square;stroke-linejoin:bevel;stroke-miterlimit:10;}
	.st13{fill:none;stroke:#13D6A3;stroke-width:16;stroke-miterlimit:10;}
	.st14{fill:none;stroke:#13D6A3;stroke-width:16;stroke-linejoin:bevel;stroke-miterlimit:10;}
	.st15{fill:none;stroke:#231F20;stroke-width:16;stroke-miterlimit:10;}
	.st16{fill:#231F20;}
	.st17{fill:#F1F1F2;}
	.st18{fill:none;}
	.st19{fill:#13D6A3;stroke:#13D6A3;stroke-width:10;stroke-miterlimit:10;}
	.st20{fill:#86EFD9;}
	.st21{fill:#2C2C75;stroke:#C2F9FF;stroke-width:20;stroke-linecap:round;stroke-linejoin:round;stroke-miterlimit:10;}
	.st22{fill:#2C2C75;stroke:#C2F9FF;stroke-width:10;stroke-linecap:round;stroke-linejoin:round;stroke-miterlimit:10;}
	
		.st23{fill:url(#SVGID_00000025416237123523822710000006901286679764313738_);stroke:#C2F9FF;stroke-width:10;stroke-linecap:round;stroke-linejoin:round;stroke-miterlimit:10;}
	.st24{fill:#35356D;stroke:#C2F9FF;stroke-width:10;stroke-linecap:round;stroke-linejoin:round;stroke-miterlimit:10;}
	
		.st25{fill:url(#SVGID_00000095301702538019208180000003865166704387749517_);stroke:#C2F9FF;stroke-width:10;stroke-linecap:round;stroke-linejoin:round;stroke-miterlimit:10;}
	.st26{fill:#FF00FF;}
	
		.st27{fill:url(#SVGID_00000128478320301003141040000000138523284572902063_);fill-opacity:0.58;stroke:#C2F9FF;stroke-width:10;stroke-linecap:round;stroke-linejoin:round;stroke-miterlimit:10;}
	
		.st28{fill:url(#SVGID_00000165236611724400851930000010203158842837053885_);stroke:#C2F9FF;stroke-width:10;stroke-linecap:round;stroke-linejoin:round;stroke-miterlimit:10;}
	.st29{fill:none;stroke:#FFFFFF;stroke-width:2;stroke-linecap:round;stroke-linejoin:round;stroke-miterlimit:10;}
	.st30{fill:none;stroke:#FFFFFF;stroke-width:2;stroke-miterlimit:10;}
	
		.st31{fill:url(#SVGID_00000098924297537147918610000013763287562229596860_);stroke:#C2F9FF;stroke-width:10;stroke-linecap:round;stroke-linejoin:round;stroke-miterlimit:10;}
	
		.st32{fill:url(#SVGID_00000063601503269407536230000015852426657651785874_);stroke:#C2F9FF;stroke-width:10;stroke-linecap:round;stroke-linejoin:round;stroke-miterlimit:10;}
	
		.st33{fill:url(#SVGID_00000104686991568265936020000014010079622328071816_);stroke:#C2F9FF;stroke-width:10;stroke-linecap:round;stroke-linejoin:round;stroke-miterlimit:10;}
	
		.st34{fill:url(#SVGID_00000059298825597380623030000007061560266207819156_);stroke:#C2F9FF;stroke-width:10;stroke-linecap:round;stroke-linejoin:round;stroke-miterlimit:10;}
	
		.st35{fill:url(#SVGID_00000033351464344007003750000004379714318589196465_);stroke:#C2F9FF;stroke-width:10;stroke-linecap:round;stroke-linejoin:round;stroke-miterlimit:10;}
	.st36{fill:none;stroke:#FFFFFF;stroke-width:2;stroke-linejoin:round;stroke-miterlimit:10;}
	.st37{fill:none;stroke:#FFFFFF;stroke-width:0.75;stroke-miterlimit:10;}
	.st38{fill:#8FFFFC;}
</style>
<g id="Layer_3">
</g>
<g id="artwork">
	<g>
		<g>
			<path class="st5" d="M580.4,236.1c-3.4,0-6.7-1.5-8.9-4.3c-1-1.2-1.8-2.7-2.2-4.2h-0.2l-0.2-2.4l-3.1-55.8l3,0.4
				c23.1,2.9,45.1,13.5,61.8,29.8l2.1,2.1l-46.8,33.2l-0.2-0.1C584,235.7,582.2,236.1,580.4,236.1z M573.8,222.6L573.8,222.6
				l0.2,2.4c0.1,1.4,0.5,2.6,1.4,3.7c2.2,2.7,6,3.2,8.8,1.2l1.3-1l0.1,0.1l39.3-27.9c-14.9-13.7-33.8-22.8-53.8-25.9L573.8,222.6z"
				/>
			<path class="st5" d="M555.8,297.3l-16.7-8l-4.2-18.1l11.6-14.4h18.6l11.6,14.5l-4.2,18.1L555.8,297.3z M543.4,285.8l12.4,6
				l12.4-5.9l3.1-13.4l-8.6-10.7h-13.8l-8.6,10.7L543.4,285.8z"/>
			<path class="st5" d="M531.2,236.3c-2.2,0-4.2-0.6-6-1.7H525l-46.4-32.9l2.1-2.1c14.1-13.9,31.8-23.5,51.2-27.9
				c3.6-0.8,7.3-1.5,11-1.9l3-0.4l-3.2,57.3l-0.3,0.2C541.4,232.3,536.7,236.3,531.2,236.3z M526.6,229.6h0.2l0.7,0.5
				c1.1,0.8,2.4,1.2,3.7,1.2c3.4,0,6.2-2.7,6.3-6.1l0.1-1.5l0.3-0.1l2.7-48.3c-2.5,0.4-5,0.9-7.5,1.4l0,0
				c-17.5,3.9-33.6,12.4-46.6,24.5L526.6,229.6z"/>
			<path class="st5" d="M449.9,290l-0.3-3c-2.6-23.7,2.6-46.9,15.1-67.2l1.6-2.5l42.9,38.3l-0.1,0.3c3.6,4.1,3.9,10.2,0.4,14.6
				c-1.2,1.5-2.8,2.7-4.6,3.4l-0.1,0.3L449.9,290z M467.4,225c-10.3,17.9-14.8,38-13.1,58.5l46.6-13.5l0.1-0.2l1.2-0.4
				c1.4-0.4,2.5-1.1,3.3-2.2c2.1-2.7,1.8-6.5-0.8-8.7l-1.1-0.9l0.1-0.3L467.4,225z"/>
			<path class="st5" d="M500.8,367.6l-2.5-1.6c-19.7-12.7-34.9-31.7-42.9-53.7l-1-2.8l56.7-9.6l0.1,0.2c0.1,0,0.3,0,0.4,0
				c5.3,0.1,9.8,3.7,11,8.9c0.4,1.8,0.4,3.8-0.2,5.6l0.2,0.2L500.8,367.6z M461.2,313.4c7.5,18.8,20.6,35.2,37.3,46.7l18.4-44.7
				l-0.1-0.2l0.5-1.2c0.4-0.9,0.8-2.3,0.4-3.9c-0.7-2.9-3.2-5-6.1-5c-0.4,0-0.8,0-1.2,0.1l-1.8,0.4l-0.1-0.2L461.2,313.4z"/>
			<path class="st5" d="M555.9,382.8c-11.6,0-23.2-1.9-34.3-5.7l-2.8-1l27.7-50.2h0.2c2-2.8,5.3-4.5,8.8-4.7
				c1.7-0.1,3.5,0.3,5.3,1.1c1.7,0.9,3.2,2.1,4.3,3.5h0.3l27.8,50.3l-2.9,0.9c-3,1-6.7,2.1-10.5,2.9
				C571.9,381.9,563.9,382.8,555.9,382.8z M526,373.4c17.1,5.2,35.2,5.9,52.6,1.9l0,0c2.5-0.5,4.9-1.2,7.1-1.9L562.4,331h-0.2
				l-0.7-1.3c-0.7-1.2-1.7-2.1-2.9-2.8c-1-0.5-2-0.7-2.9-0.6c-2.3,0.1-4.4,1.4-5.4,3.3l-0.7,1.3h-0.1L526,373.4z"/>
			<path class="st5" d="M611.1,367.7l-22-53l0.1-0.2c-1.6-5.3,0.8-11.1,5.9-13.6c1.3-0.7,2.8-1,4.3-1.1c0.4,0,0.9,0,1.3,0l0.1-0.1
				l1.3,0.1l55.4,9.3l-1,2.8c-5.5,15.3-14.5,29.4-26.1,40.6c-5.2,5.1-10.9,9.6-16.9,13.4L611.1,367.7z M594.6,314.9l18.8,45.3
				c4.8-3.3,9.3-7,13.6-11.2l0,0c10.4-10,18.5-22.4,23.8-35.9l-48.2-8.1l0,0l-1.4-0.2c-0.5-0.1-1-0.1-1.4-0.1l-0.1,0
				c-0.9,0-1.6,0.2-2.4,0.6c-3.1,1.5-4.4,5.1-3.1,8.3l0.4,1.1L594.6,314.9z"/>
			<path class="st5" d="M661.9,289.9L606.7,274l-0.1-0.4c-5-2.1-7.9-7.6-6.6-13c0.5-2,1.4-3.8,2.8-5.2v-0.1l0.8-0.8l26.3-23.5
				l15.3-13.7l1.6,2.6c6.1,10,10.6,20.9,13.2,32.4c2.6,11.3,3.4,23,2.3,34.6L661.9,289.9z M610.9,270l46.6,13.4
				c0.7-10.1-0.1-20.1-2.4-30c-2.3-10-6-19.6-11.1-28.4l-10.8,9.7l-25.4,22.8l-0.9,0.8c-1,0.9-1.7,2-2,3.4c-0.8,3.3,1.2,6.7,4.6,7.6
				l1.4,0.4L610.9,270z"/>
		</g>
		<path class="st5" d="M620,424.4H491.6l1.4-3.4c0.7-1.8,1.4-3.7,2-5.5c1.7-4.8,3.2-9.4,6.1-12.7c1.2-1.5,2.9-2.2,4.6-2.7l2.8-5.1
			l2,0.8c23.8,9.1,49.4,11,74.2,5.3c5.6-1.3,11.3-3,16.9-5.1l2-0.8l2.1,3.9c0.2,0.4,0.4,0.7,0.6,1.1c1.6,0.5,3.8,1.2,5.5,3.8
			l0.1,0.2c2.9,4.9,4.9,10.8,7,17.1L620,424.4z M498.8,419.4H613c-1.6-4.7-3.3-9.1-5.4-12.8c-0.8-1.2-1.7-1.4-3-1.8
			c-0.3-0.1-0.6-0.2-0.8-0.3l-0.9-0.3l-0.5-0.8c-0.2-0.3-0.6-1.1-1.1-2l0-0.1c-5.1,1.9-10.4,3.4-15.6,4.6c-25,5.7-51,4-75.1-4.8
			l-1.8,3.2l-1.1,0.3c-1.2,0.3-2.5,0.7-3.1,1.3c-2.3,2.7-3.7,6.8-5.2,11.1C499.4,417.9,499.1,418.6,498.8,419.4z"/>
		<path class="st5" d="M800.5,290.6h-15v-11.4c0-4.1,3.4-7.5,7.5-7.5c2,0,3.9,0.8,5.3,2.2c1.4,1.4,2.2,3.3,2.2,5.3V290.6z
			 M790.5,285.6h5v-6.4c0-0.7-0.3-1.3-0.7-1.8c-0.5-0.5-1.1-0.7-1.8-0.7c-1.4,0-2.5,1.1-2.5,2.5V285.6z"/>
		<path class="st5" d="M996.3,290.6h-15v-11.4c0-4.1,3.4-7.5,7.5-7.5c2,0,3.9,0.8,5.3,2.2c1.4,1.4,2.2,3.3,2.2,5.3V290.6z
			 M986.4,285.6h5v-6.4c0-0.7-0.3-1.3-0.7-1.8c-0.5-0.5-1.1-0.7-1.8-0.7c-1.4,0-2.5,1.1-2.5,2.5V285.6z"/>
		<path class="st5" d="M669.7,424.4c-0.4,0-0.6,0-0.8,0l0.1-5c0.4,0,42.6,0.6,70.4-26.7c16.3-16,24.6-38.4,24.6-66.6h5
			c0,29.6-8.8,53.2-26.1,70.2C715.4,423.3,675.9,424.4,669.7,424.4z"/>
		<path class="st5" d="M1076.4,418.3c-29-9.4-63.7-33.1-63.7-92.2h5c0,56.1,32.7,78.5,60.2,87.4L1076.4,418.3z"/>
		<path class="st5" d="M955.8,424.4H826.1l41.2-48.4v-1.2l-50.5,36.4v-85H965v85l-50.5-36.4v1.2L955.8,424.4z M836.9,419.4h108
			l-35.4-41.5V365l50.5,36.4v-70.3H821.8v70.3l50.5-36.4v12.8L836.9,419.4z"/>
		<path class="st5" d="M1208,272.6c-10.2,0-18.4-8.3-18.4-18.4c0-10.2,8.3-18.4,18.4-18.4c10.2,0,18.4,8.3,18.4,18.4
			C1226.4,264.3,1218.1,272.6,1208,272.6z M1208,240.7c-7.4,0-13.4,6-13.4,13.4c0,7.4,6,13.4,13.4,13.4s13.4-6,13.4-13.4
			C1221.4,246.7,1215.4,240.7,1208,240.7z"/>
		<path class="st5" d="M1543.1,480.4h-130.6c-1.4,0-2.5-1.1-2.5-2.5v-84.6l-4.7,0c-0.7,0-1.3-0.3-1.8-0.7c-0.5-0.5-0.7-1.1-0.7-1.8
			v-29.3h-1.6c-1.2,0-2.2-0.9-2.5-2l0-0.2l0,0.2c-0.2,1.2-1.3,2-2.5,2h-1.5v29.3c0,1.4-1.1,2.5-2.5,2.5h-24.3
			c-1.4,0-2.5-1.1-2.5-2.5v-29.3h-1.6c-1.2,0-2.2-0.9-2.5-2l0-0.2l0,0.2c-0.2,1.2-1.3,2-2.5,2h-1.5v29.3c0,1.4-1.1,2.5-2.5,2.5
			h-24.3c-1.4,0-2.5-1.1-2.5-2.5v-29.3h-1.6c-1.2,0-2.2-0.9-2.5-2l0-0.2l0,0.2c-0.2,1.2-1.3,2-2.5,2h-1.6v29.3
			c0,1.4-1.1,2.5-2.5,2.5h-24.3c-1.4,0-2.5-1.1-2.5-2.5v-29.3h-1.6c-1.2,0-2.2-0.9-2.5-2l0-0.2l0,0.2c-0.2,1.2-1.3,2-2.5,2h-1.5
			v29.3c0,1.4-1.1,2.5-2.5,2.5h-24.2c-1.4,0-2.5-1.1-2.5-2.5v-29.3h-1.6c-1.2,0-2.2-0.9-2.5-2l0-0.2l0,0.2c-0.2,1.2-1.3,2-2.5,2
			h-1.6v29.3c0,1.4-1.1,2.5-2.5,2.5h-11.9c-1.4,0-2.5-1.1-2.5-2.5V278.9c0-0.8,0.4-1.5,1-2c-0.6-0.5-1-1.2-1-2v-41.5
			c0-0.5,0.2-1.1,0.5-1.5h-0.4c-1.4,0-2.5-1.1-2.5-2.5v-13.2c0-0.5,0.2-1.1,0.5-1.5h-6.8c-1.4,0-2.5-1.1-2.5-2.5v-7.9
			c0-0.8,0.4-1.5,1-2c-0.6-0.5-1-1.2-1-2v-15.1l-9.1-28.4l-9.1,28.4v15.1c0,0.8-0.4,1.5-1,2c0.6,0.5,1,1.2,1,2v7.9
			c0,1.4-1.1,2.5-2.5,2.5h-6.8c0.3,0.4,0.5,0.9,0.5,1.5v13.2c0,1.4-1.1,2.5-2.5,2.5h-0.4c0.3,0.4,0.5,0.9,0.5,1.5v41.5
			c0,0.8-0.4,1.5-1,2c0.6,0.5,1,1.2,1,2v111.9c0,1.4-1.1,2.5-2.5,2.5h-36.4c-0.9,0-1.7-0.5-2.2-1.3c-0.4-0.8-0.4-1.7,0-2.5
			c0,0,4.2-8.2,4.2-38.2c0-91.8-25.8-121.4-30.5-123.6c-4.7,2.1-30.5,31.8-30.5,123.6c0,30,4.2,38.2,4.3,38.2c0.4,0.8,0.4,1.7,0,2.5
			c-0.5,0.8-1.3,1.2-2.1,1.2h-12.2v28.6c0,1.4-1.1,2.5-2.5,2.5h-50.2c-1.4,0-2.5-1.1-2.5-2.5v-1.1h-9.2c-1.4,0-2.5-1.1-2.5-2.5
			V284.4c-0.7-0.3-1.2-1-1.4-1.8l-0.9-4.6l-0.9,4.6c-0.2,0.8-0.7,1.4-1.4,1.8V298c0,1.3-0.9,2.3-2.2,2.5c-1.2,0.2-2.4-0.6-2.7-1.8
			l-14.4-52.5l-14.4,52.5c-0.3,1.2-1.5,2-2.7,1.8c-1.2-0.2-2.2-1.2-2.2-2.5v-13.6c-0.7-0.3-1.2-1-1.4-1.8l-0.9-4.6l-0.9,4.6
			c-0.2,0.8-0.7,1.4-1.4,1.8V310c0,1.4-1.1,2.5-2.5,2.5h-58.9c-1.4,0-2.5-1.1-2.5-2.5v-5.1h-20v5.1c0,1.4-1.1,2.5-2.5,2.5h-59.3
			c-1.4,0-2.5-1.1-2.5-2.5v-25.7c-0.7-0.3-1.2-1-1.4-1.8l-0.9-4.6l-0.9,4.6c-0.2,0.8-0.7,1.4-1.4,1.8V298c0,1.3-0.9,2.3-2.2,2.5
			c-1.2,0.2-2.4-0.6-2.7-1.8L793,246.1l-14.4,52.5c-0.3,1.2-1.5,2-2.7,1.8c-1.2-0.2-2.2-1.2-2.2-2.5v-13.6c-0.7-0.3-1.2-1-1.4-1.8
			l-0.9-4.6l-0.9,4.6c-0.2,0.8-0.7,1.4-1.4,1.8v133.9c0,1.4-1.1,2.5-2.5,2.5h-9.2v1.1c0,1.4-1.1,2.5-2.5,2.5H637.3
			c-0.9,0-1.7-0.5-2.2-1.3c-0.9-1.6-1.9-3-3-4.4c-0.6-0.8-1.2-1.7-1.9-2.6c0,0,0-0.1-0.1-0.1c-0.4-0.7-0.9-1.4-1.3-2
			c-1.1-1.8-2.2-3.5-3.1-5.1c-2-3.3-3.6-6.3-4.7-9.2c0,0,0-0.1-0.1-0.2c-0.9-2.9-0.2-5,0.4-6.6c-0.2-0.6-0.5-1.3-0.9-2.3
			c-0.1-0.4-0.3-0.7-0.4-1c-0.4-1.1,0-2.4,1.1-3c2-1.2,3.9-2.4,5.6-3.6c24.3-16.1,42.5-40.2,51.3-68.1c0.4-1.2,1.6-1.9,2.9-1.7
			c0.9,0.2,2.3,0.4,3.3,0.6c1.4-1,3.3-2.1,6.4-1.9c0.1,0,0.1,0,0.2,0c5.6,0.8,11.4,2.9,18.1,5.3c1.1,0.4,2.1,0.9,3.1,1.3
			c1.9,0.8,3.6,1.6,5.7,2.1c0.4,0.1,0.9,0.2,1.5,0.3c0.3,0.1,0.7,0.1,1,0.2c0.1,0,0.2,0,0.3,0.1c0.1,0,0.1,0,0.2,0
			c4.6,1,9.1-1.4,10-5.4c0.9-4-2.1-8.2-6.7-9.3c-0.2,0-0.6-0.1-0.9-0.2c-0.6-0.1-1.3-0.3-1.7-0.4c0,0-0.1,0-0.1,0
			c-2.1-0.4-3.9-0.5-5.9-0.6c-1.1,0-2.3-0.1-3.5-0.2c-7.6-0.7-13.3-1.4-18.6-3.1c-0.1,0-0.1,0-0.2-0.1c-2.4-0.9-4-3.1-4.9-4.5
			l-3.2-1c-1.2-0.4-1.9-1.5-1.8-2.7c2.2-15.3,1.5-30.8-2.1-46.1c-3.5-15.2-9.7-29.6-18.5-42.8c-0.7-1-0.5-2.4,0.4-3.2
			c0.5-0.5,1.3-1.1,2-1.8c0.3-0.3,0.6-0.5,0.9-0.8c0.1-1.7,0.4-4,2.5-6.2c0-0.1,0.1-0.1,0.1-0.1c4.3-4,9.7-7.3,15.4-10.8
			c1-0.6,2-1.1,2.9-1.6c1.8-0.9,3.5-1.8,5.2-3.2c0.4-0.3,0.7-0.6,1.1-0.8c0.4-0.3,0.8-0.6,1.2-0.9c1.9-1.6,3.2-3.8,3.5-6.1
			c0.2-1.9-0.3-3.7-1.4-5.1c-1.2-1.5-2.9-2.4-4.9-2.6c-2.3-0.2-4.7,0.5-6.7,2c-0.3,0.2-0.6,0.5-0.9,0.7c-0.4,0.3-0.9,0.7-1.2,1
			c-1.7,1.4-2.9,2.9-4.3,4.4c-0.7,0.8-1.4,1.6-2.2,2.5l-0.8,0.8c-4.7,4.8-8.8,8.9-13.2,11.9c-0.1,0-0.1,0.1-0.2,0.1
			c-2.2,1.3-5,1.1-6.6,1L652,188c-1,0.7-2.4,0.6-3.3-0.3c-1.1-1.2-2.3-2.4-3.9-3.9c-21.2-20.4-49-33.1-78.1-35.8
			c-1.2-0.1-2.1-1-2.3-2.2c-0.1-1-0.2-2.5-0.2-3.6c-1.3-1.2-2.9-2.8-3.3-5.8c0,0,0-0.1,0-0.1c-0.4-5.3,0.2-10.9,1-17.4l0.2-1.4
			c0.2-1.3,0.4-2.5,0.6-3.6c0.4-1.9,0.7-3.7,0.8-5.8c0-0.3,0-0.7,0-1.2c0-0.5,0-1.1,0-1.6c0-4.8-3.4-8.7-7.5-8.7
			c-4.1,0-7.5,3.7-7.6,8.4c0.1,0.2,0.1,0.5,0.1,0.8c-0.1,0.8-0.1,1.7-0.1,2.4c0.1,2,0.4,3.7,0.8,5.6c0.2,1.2,0.4,2.3,0.6,3.6
			l0.1,1.3c0.8,6.5,1.4,12.2,1,17.6c0,0.1,0,0.2,0,0.3c-0.4,1.9-1.5,3.8-3.3,5.7l-0.2,3.4c-0.1,1.3-1.1,2.3-2.3,2.3
			c-5.8,0.4-11.8,1.3-17.8,2.7c-24.8,5.6-47.1,18.3-64.6,36.8c-0.9,0.9-2.2,1-3.3,0.3c-0.8-0.5-1.9-1.4-2.8-2
			c-1.7,0.3-4,0.5-6.7-1.1c0,0-0.1,0-0.1-0.1c-4.8-3.2-9.1-7.5-14-12.6c-0.8-0.9-1.5-1.7-2.2-2.5c-1.3-1.5-2.6-3-4.2-4.4
			c-0.3-0.3-0.7-0.6-1.1-0.9c-0.4-0.3-0.8-0.6-1.2-0.9c-1.5-1.2-3.5-2-5.5-2.1c-2.4-0.1-4.6,0.9-5.9,2.6c-2.5,3.2-1.7,8.1,1.8,11.1
			c0.2,0.1,0.4,0.2,0.6,0.4c0.6,0.5,1.3,1.1,1.8,1.5c1.8,1.4,3.5,2.3,5.3,3.2c0.9,0.5,1.8,1,2.8,1.5c6.1,3.8,11.2,7,15.4,10.9
			c0,0,0.1,0.1,0.1,0.1c1.8,1.9,2.3,4.6,2.6,6.3l2.6,2.3c0.9,0.8,1.1,2.2,0.4,3.2c-17.5,26.4-24.6,58-20.1,89.1
			c0.2,1.2-0.6,2.4-1.8,2.8l-3.5,1.1c-1.3,1.6-2.8,3.6-4.8,4.5c-0.1,0-0.2,0.1-0.2,0.1c-5.2,1.6-10.9,2.2-17.5,2.9l-1,0.1
			c-1.2,0.1-2.3,0.1-3.3,0.2c-2,0.1-3.9,0.2-6.1,0.5c-0.7,0.2-1.5,0.4-2.3,0.5c-0.3,0.1-0.5,0.2-0.8,0.2c-4.5,1.2-7.3,5.2-6.4,9.3
			c0.9,4,5.4,6.4,10,5.4c0,0,0.1,0,0.1,0c0.1,0,0.2,0,0.3-0.1c0.3-0.1,0.6-0.1,1-0.2c0.6-0.1,1.1-0.2,1.5-0.3c1.9-0.5,3.5-1.2,5.3-2
			c1.1-0.5,2.2-1,3.5-1.4c6.6-2.4,12.4-4.5,18-5.3c0,0,0.1,0,0.1,0c2.6-0.2,5,1.1,6.5,1.9l3.5-0.6c1.2-0.2,2.4,0.5,2.8,1.7
			c9.6,29.8,29.8,55.1,57,71.1c1.1,0.6,1.5,2,1,3.1l-1.4,3.5c0.9,2.5,1.1,4.6,0.7,6.3c0,0.1-0.1,0.2-0.1,0.3
			c-2,5.3-5.4,10.8-9.4,16.9c-0.6,1-1.3,1.8-1.9,2.7c-1,1.4-2,2.7-2.9,4.2c-0.4,0.8-1.3,1.3-2.2,1.3h-61.8c-1.4,0-2.5-1.1-2.5-2.5
			v-28.6h-2.5c-1.4,0-2.5-1.1-2.5-2.5v-29.3h-1.6c-1.2,0-2.2-0.9-2.5-2l0-0.2l0,0.2c-0.2,1.2-1.3,2-2.5,2h-1.6v29.3
			c0,1.4-1.1,2.5-2.5,2.5h-24.2c-1.4,0-2.5-1.1-2.5-2.5v-29.3h-1.6c-1.2,0-2.2-0.9-2.5-2l0-0.2l0,0.2c-0.2,1.2-1.3,2-2.5,2h-1.6
			v29.3c0,1.4-1.1,2.5-2.5,2.5h-24.2c-1.4,0-2.5-1.1-2.5-2.5v-29.3H329c-1.2,0-2.2-0.9-2.5-2l0-0.2l0,0.2c-0.2,1.2-1.3,2-2.5,2h-1.5
			v29.3c0,1.4-1.1,2.5-2.5,2.5h-2.5v28.6c0,1.4-1.1,2.5-2.5,2.5l-11.3,0c-0.7,0-1.3-0.3-1.8-0.7c-0.5-0.5-0.7-1.1-0.7-1.8v-57.2
			l-3.8-4.8c-0.5-0.1-0.9-0.3-1.2-0.7c-0.5-0.5-0.7-1.1-0.7-1.8c0-1.9,0-3.9,0-6c0-15.6-0.9-27.6-1.9-34.2c-1,6.6-1.9,18.5-1.9,34.2
			c0,2,0,4,0,6c0,0.7-0.2,1.3-0.7,1.8c-0.5,0.5-1.1,0.7-1.8,0.7h-7c-1.4,0-2.5-1.1-2.5-2.5c0-28.1-11.8-52.7-28.7-59.9
			c-0.9-0.4-1.5-1.3-1.5-2.3v-23.2c0-1.2-0.8-2.2-2-2.4c-1.1-0.2-2-1.3-2-2.4v-0.1c0-7.9-2.4-13.2-4.1-14c-0.1,0-0.2-0.1-0.2-0.1
			c-0.1,0-0.2,0.1-0.2,0.1c-1.7,0.8-4.1,6.1-4.1,14v0.1c0,1.2-0.8,2.2-2,2.4c-1.1,0.2-2,1.3-2,2.4v23.2c0,1-0.6,1.9-1.5,2.3
			c-16.9,7.2-28.7,31.9-28.7,59.9c0,1.4-1.1,2.5-2.5,2.5l-1.6,0l-3.7,4.7v57.2c0,1.4-1.1,2.5-2.5,2.5h-59.2v53.5
			c0,1.4-1.1,2.5-2.5,2.5H0v-5h128.1v-53.5c0-1.4,1.1-2.5,2.5-2.5h59.2v-55.6c0-0.6,0.2-1.1,0.5-1.5l5-6.4c0.5-0.6,1.2-1,2-1h0.4
			c0.7-28.2,12.8-52.8,30.2-61.3v-21.6c0-2.8,1.6-5.3,4-6.6c0.2-6.4,2-13.1,5.5-16V245c0-1.4,1.1-2.5,2.5-2.5h2.6
			c1.4,0,2.5,1.1,2.5,2.5v4.5c3.5,2.9,5.2,9.7,5.5,16c2.4,1.3,4,3.8,4,6.6v21.6c17.4,8.5,29.5,33.2,30.2,61.3h2c0-1.2,0-2.3,0-3.5
			c0-11.2,0.5-21.8,1.3-29.7c1.1-10.8,2.6-14.4,5.6-14.4c3,0,4.5,3.6,5.6,14.4c0.8,7.9,1.3,18.5,1.3,29.7c0,1.4,0,2.9,0,4.3
			c0.1,0.1,0.1,0.1,0.2,0.2l5,6.4c0.3,0.4,0.5,1,0.5,1.5v55.6l6.3,0v-28.6c0-1.4,1.1-2.5,2.5-2.5h2.5V359c0-1.4,1.1-2.5,2.5-2.5h2
			l1.6-8.8c0.2-1.2,1.3-2,2.5-2h1c1.2,0,2.2,0.9,2.5,2l1.6,8.8h2c1.4,0,2.5,1.1,2.5,2.5v29.3h19.2V359c0-1.4,1.1-2.5,2.5-2.5h2
			l1.6-8.8c0.2-1.2,1.3-2,2.5-2h1c1.2,0,2.2,0.9,2.5,2l1.6,8.8h2c1.4,0,2.5,1.1,2.5,2.5v29.3h19.2V359c0-1.4,1.1-2.5,2.5-2.5h2
			l1.6-8.8c0.2-1.2,1.3-2,2.5-2h1c1.2,0,2.2,0.9,2.5,2l1.6,8.8h2c1.4,0,2.5,1.1,2.5,2.5v29.3h2.5c1.4,0,2.5,1.1,2.5,2.5v28.6h57.9
			c0.8-1.3,1.6-2.4,2.4-3.4c0.6-0.8,1.2-1.6,1.8-2.5c3.7-5.8,7-11,8.8-15.8c0.1-0.4,0.1-1.6-0.9-4c-0.2-0.6-0.2-1.3,0-1.9l1-2.4
			c-26.6-16.4-46.6-41.3-56.6-70.7l-2.2,0.4c-0.5,0.1-1.1,0-1.6-0.2c-0.2-0.1-0.5-0.2-0.7-0.4c-1-0.6-2.5-1.4-3.7-1.4
			c-5.1,0.8-10.6,2.7-17,5.1c-1.1,0.4-2.1,0.8-3.2,1.3c-1.8,0.8-3.7,1.6-6,2.2c-0.6,0.1-1.2,0.3-1.8,0.4c-0.3,0.1-0.5,0.1-0.8,0.2
			c-0.3,0.1-0.5,0.2-0.8,0.2c-7.2,1.4-14.2-2.7-15.7-9.3c-1.5-6.8,3-13.5,10.4-15.3c0,0,0,0,0,0c0.1,0,0.2-0.1,0.3-0.1
			c0.8-0.2,1.8-0.4,2.5-0.6c0.1,0,0.1,0,0.2,0c2.5-0.4,4.7-0.5,6.8-0.6c1,0,2-0.1,3.1-0.2l1-0.1c6.6-0.7,11.7-1.2,16.4-2.7
			c0.8-0.4,2-2,2.8-2.9l0.5-0.7c0.3-0.4,0.7-0.7,1.2-0.8l2.2-0.7c-4-30.9,3.1-62.2,20-88.6l-1.6-1.5c-0.4-0.4-0.7-0.9-0.8-1.5
			l-0.1-0.5c-0.1-1.1-0.4-3-1.2-3.9c-3.8-3.6-8.8-6.6-14.5-10.2c-0.8-0.5-1.7-0.9-2.6-1.4c-1.9-1-3.9-2-6-3.6
			c-0.6-0.4-1.4-1-1.9-1.6c-0.1-0.1-0.3-0.2-0.4-0.3c-5.9-4.7-7.2-13-2.9-18.4c2.4-2.9,6-4.6,10-4.5c3.1,0.2,6.1,1.3,8.5,3.2
			c0.4,0.3,0.7,0.6,1,0.8c0.5,0.4,1,0.7,1.3,1.1c1.9,1.6,3.3,3.3,4.7,4.9c0.7,0.8,1.3,1.5,2.1,2.3c4.7,4.8,8.7,8.9,13.1,11.8
			c1.2,0.7,2.2,0.6,3.5,0.3c0.3,0,0.5-0.1,0.8-0.1c0.6-0.1,1.3,0.1,1.8,0.5c0.3,0.2,1,0.8,1.8,1.3c17.9-18.4,40.5-31,65.6-36.7
			c5.5-1.3,11-2.2,16.4-2.7l0.1-2.1c0-0.6,0.3-1.2,0.7-1.6c1.4-1.4,2.3-2.7,2.6-3.8c0.4-4.8-0.3-10.2-1-16.4l-0.1-1.2
			c-0.1-1.1-0.3-2.2-0.6-3.3c-0.4-2-0.8-4-0.8-6.5c0-0.7,0-1.5,0-2.4c0-0.2,0-0.3,0-0.5c0-7.5,5.7-13.7,12.6-13.7
			c6.9,0,12.5,6.1,12.5,13.7c0,0.4,0,0.9,0,1.4c0,0.5,0,1,0,1.4c-0.1,2.6-0.5,4.6-0.9,6.6c-0.2,1.1-0.4,2.2-0.6,3.3l-0.2,1.3
			c-0.7,6.2-1.3,11.6-1,16.4c0.2,1.4,0.9,1.9,1.9,2.9c0.2,0.2,0.4,0.4,0.6,0.5c0.5,0.5,0.8,1.1,0.8,1.8c0,0.4,0,1.3,0.1,2.2
			c29.5,3.1,57.5,16.2,79,36.9c1,0.9,1.8,1.7,2.6,2.5l2.1-1.5c0.5-0.3,1-0.5,1.6-0.5c0.2,0,0.4,0,0.6,0c1,0.1,3,0.2,4-0.3
			c4-2.8,7.9-6.7,12.4-11.2l0.7-0.7c0.7-0.7,1.4-1.5,2-2.3c1.4-1.6,2.8-3.3,4.8-4.9c0.4-0.3,0.9-0.7,1.4-1.2
			c0.3-0.2,0.6-0.5,0.8-0.7c3-2.4,6.7-3.5,10.4-3.1c3.3,0.4,6.2,1.9,8.2,4.4c2,2.4,2.8,5.6,2.5,8.8c-0.4,3.7-2.3,7.1-5.3,9.5
			c0,0-0.1,0-0.1,0.1c-0.3,0.2-0.7,0.5-1,0.8c-0.4,0.3-0.9,0.7-1.2,1c-2,1.6-4,2.6-5.9,3.6c-0.9,0.5-1.7,0.9-2.6,1.4
			c-5.4,3.3-10.6,6.5-14.5,10.1c-0.9,1.1-1,2-1.1,3.4c0,0.3,0,0.6-0.1,0.8c-0.1,0.6-0.3,1.1-0.7,1.5c-0.3,0.3-0.9,0.8-1.8,1.6
			c-0.1,0.1-0.2,0.2-0.3,0.2c8.5,13.2,14.6,27.5,18,42.6c3.5,15.2,4.3,30.6,2.4,45.8l2.1,0.6c0.6,0.2,1,0.5,1.4,1l0.2,0.3
			c0.6,0.8,1.7,2.6,2.8,3.1c4.8,1.5,10.3,2.1,17.5,2.8c1.1,0.1,2.2,0.1,3.3,0.2c2,0.1,4.1,0.2,6.6,0.6c0.7,0.1,1.4,0.3,2.1,0.4
			c0.3,0.1,0.6,0.1,0.9,0.2c7.3,1.8,12,8.7,10.4,15.3c-1.5,6.6-8.5,10.7-15.7,9.2c-0.2,0-0.5-0.1-0.7-0.2c-0.3-0.1-0.6-0.1-0.8-0.2
			c-0.6-0.1-1.2-0.2-1.7-0.4c-2.5-0.6-4.5-1.5-6.4-2.4c-0.9-0.4-1.9-0.8-2.9-1.2c-6.3-2.3-11.8-4.3-16.9-5c-1.4-0.1-2.2,0.5-3.4,1.3
			c-0.2,0.1-0.4,0.3-0.6,0.4c-0.5,0.3-1.2,0.5-1.8,0.4c-0.4-0.1-1.3-0.2-2.3-0.4c-9.4,28-28,52.3-52.6,68.6
			c-1.3,0.9-2.6,1.8-4.1,2.7c0.2,0.6,0.5,1.3,0.6,1.6c0.5,0.7,0.6,1.5,0.3,2.3c-0.1,0.3-0.2,0.5-0.3,0.8c-0.5,1.3-0.8,2.1-0.4,3.5
			c1,2.6,2.4,5.3,4.3,8.4c0.9,1.6,2,3.3,3.1,5c0.4,0.7,0.8,1.3,1.3,2c0.6,0.8,1.2,1.6,1.7,2.4c0.9,1.2,1.7,2.3,2.6,3.7h113.7v-1.1
			c0-1.4,1.1-2.5,2.5-2.5h9.2V282.1c0-1.2,0.8-2.1,1.8-2.4l1.6-8.1c0.1-0.7,0.5-1.2,1.1-1.6v-8.2c0-1.4,1.1-2.5,2.5-2.5h0.5
			c1.4,0,2.5,1.1,2.5,2.5v8.2c0.5,0.4,1,0.9,1.1,1.6l1.6,8.1c0.6,0.2,1.1,0.6,1.5,1.1l10.5-38.3c0.3-1.1,1.3-1.8,2.4-1.8h3.6
			c1.1,0,2.1,0.8,2.4,1.8l10.5,38.3c0.3-0.5,0.8-0.9,1.5-1.1l1.6-8.1c0.1-0.7,0.5-1.2,1.1-1.6v-8.2c0-1.4,1.1-2.5,2.5-2.5h0.5
			c1.4,0,2.5,1.1,2.5,2.5v8.2c0.5,0.4,1,0.9,1.1,1.6l1.6,8.1c1.1,0.3,1.8,1.3,1.8,2.4v25.4h54.3v-5.1c0-1.4,1.1-2.5,2.5-2.5h25
			c1.4,0,2.5,1.1,2.5,2.5v5.1H960v-25.4c0-1.2,0.8-2.1,1.8-2.4l1.6-8.1c0.1-0.7,0.5-1.2,1.1-1.6v-8.2c0-1.4,1.1-2.5,2.5-2.5h0.5
			c1.4,0,2.5,1.1,2.5,2.5v8.2c0.5,0.4,1,0.9,1.1,1.6l1.6,8.1c0.6,0.2,1.1,0.6,1.5,1.1l10.5-38.3c0.3-1.1,1.3-1.8,2.4-1.8h3.6
			c1.1,0,2.1,0.8,2.4,1.8l10.5,38.3c0.3-0.5,0.8-0.9,1.5-1.1l1.6-8.1c0.1-0.7,0.5-1.2,1.1-1.6v-8.2c0-1.4,1.1-2.5,2.5-2.5h0.5
			c1.4,0,2.5,1.1,2.5,2.5v8.2c0.5,0.4,1,0.9,1.1,1.6l1.6,8.1c1.1,0.3,1.8,1.3,1.8,2.4v133.7h9.2c1.4,0,2.5,1.1,2.5,2.5v1.1h45.2
			v-28.6c0-1.4,1.1-2.5,2.5-2.5h11.1c-1.5-5-3.5-15.8-3.5-37c0-96.5,28-128.6,35.5-128.6c7.5,0,35.5,32.2,35.5,128.6
			c0,21.2-2,32-3.5,37h30.3V281.4h-0.7c-1.4,0-2.5-1.1-2.5-2.5v-4c0-1.4,1.1-2.5,2.5-2.5h0.7v-36.5h-0.7c-1.4,0-2.5-1.1-2.5-2.5v-4
			c0-1.4,1.1-2.5,2.5-2.5h3.2v-8.2h-0.7c-1.4,0-2.5-1.1-2.5-2.5v-4c0-1.4,1.1-2.5,2.5-2.5h9.5v-2.9h-0.4c-1.4,0-2.5-1.1-2.5-2.5v-4
			c0-1.4,1.1-2.5,2.5-2.5h0.4v-13c0-0.3,0-0.5,0.1-0.8l10-31.2c0.3-1,1.3-1.7,2.4-1.7h3.2c1.1,0,2,0.7,2.4,1.7l10,31.2
			c0.1,0.2,0.1,0.5,0.1,0.8v13h0.4c1.4,0,2.5,1.1,2.5,2.5v4c0,1.4-1.1,2.5-2.5,2.5h-0.4v2.9h9.5c1.4,0,2.5,1.1,2.5,2.5v4
			c0,1.4-1.1,2.5-2.5,2.5h-0.7v8.2h3.2c1.4,0,2.5,1.1,2.5,2.5v4c0,1.4-1.1,2.5-2.5,2.5h-0.7v36.5h0.7c1.4,0,2.5,1.1,2.5,2.5v4
			c0,1.4-1.1,2.5-2.5,2.5h-0.7v106.9h6.9V359c0-1.4,1.1-2.5,2.5-2.5h2l1.6-8.8c0.2-1.2,1.3-2,2.5-2h1c1.2,0,2.2,0.9,2.5,2l1.6,8.8h2
			c1.4,0,2.5,1.1,2.5,2.5v29.3h19.2V359c0-1.4,1.1-2.5,2.5-2.5h2l1.6-8.8c0.2-1.2,1.3-2,2.5-2h1c1.2,0,2.2,0.9,2.5,2l1.6,8.8h2
			c1.4,0,2.5,1.1,2.5,2.5v29.3h19.3V359c0-1.4,1.1-2.5,2.5-2.5h2l1.6-8.8c0.2-1.2,1.3-2,2.5-2h1c1.2,0,2.2,0.9,2.5,2l1.6,8.8h2
			c1.4,0,2.5,1.1,2.5,2.5v29.3h19.3V359c0-1.4,1.1-2.5,2.5-2.5h2l1.6-8.8c0.2-1.2,1.3-2,2.5-2h1c1.2,0,2.2,0.9,2.5,2l1.6,8.8h2
			c1.4,0,2.5,1.1,2.5,2.5v29.3h19.3V359c0-1.4,1.1-2.5,2.5-2.5h2l1.6-8.8c0.2-1.2,1.3-2,2.5-2h1c1.2,0,2.2,0.9,2.5,2l1.6,8.8h2
			c1.4,0,2.5,1.1,2.5,2.5v29.3l4.7,0c0.7,0,1.3,0.3,1.8,0.7c0.5,0.5,0.7,1.1,0.7,1.8v84.6h128.1V480.4z M626.1,391.2
			c0,0,0.1,0.1,0.1,0.1C626.1,391.2,626.1,391.2,626.1,391.2z M718.6,325.8C718.6,325.8,718.6,325.8,718.6,325.8
			C718.6,325.8,718.6,325.8,718.6,325.8z M417.4,175.3C417.4,175.3,417.4,175.3,417.4,175.3C417.4,175.3,417.4,175.3,417.4,175.3z
			 M547.6,103.9C547.6,103.9,547.6,103.9,547.6,103.9C547.6,103.9,547.6,103.9,547.6,103.9z M547.6,103.9
			C547.6,103.9,547.6,103.9,547.6,103.9C547.6,103.9,547.6,103.9,547.6,103.9z M547.6,103.9C547.6,103.9,547.6,103.9,547.6,103.9
			C547.6,103.9,547.6,103.9,547.6,103.9z"/>
	</g>
	<g id="Content_00000109713272502415762930000015413808908762408324_">
		<g id="Website_00000090974299946299297810000010222160201159687089_">
			<g>
				<path class="st5" d="M452.9,595.2h9.7v77.1H511v9h-58.1V595.2z"/>
				<path class="st5" d="M528.6,595.2h9.7v86h-9.7V595.2z"/>
				<polygon class="st20" points="888.2,647.1 917.9,604.1 998,604.1 998,595.2 924,595.2 915.3,595.2 912.7,595.2 883.4,638.2 
					854.4,595.2 853.2,595.2 854.9,595.2 851.7,595.2 845.8,595.2 841.5,595.2 816.9,666.9 793.3,595 785.3,595 761.7,666.9 
					737.1,595.2 734.3,595.2 726.6,595.2 635.7,595.2 628.6,595.2 625.2,595.2 594.5,669.3 563.9,595.2 553.1,595.2 590.1,681.9 
					598.7,681.9 631.9,604.1 729.7,604.1 757.3,681.9 765.4,681.9 789.1,612.1 812.7,681.9 821,681.9 848.6,604.1 848.7,604.1 
					878.4,647.1 				"/>
				<polygon class="st5" points="935.8,633.9 992.5,633.9 992.5,642.8 945.5,642.8 945.5,672.4 998.6,672.4 998.6,681.3 
					935.8,681.3 935.8,636.2 				"/>
				<polygon class="st5" points="878.4,657.2 878.4,681.3 888.2,681.3 888.2,657.2 				"/>
				<polygon class="st5" points="647.5,633.9 704.2,633.9 704.2,642.8 657.3,642.8 657.3,672.4 710.4,672.4 710.4,681.3 
					647.5,681.3 647.5,636.2 				"/>
				<path class="st5" d="M1060.6,642.1c6.6-1.3,12.1-4,16-7.8c4.2-4.2,6.6-8,6.6-14.8l0,0l0,0v-0.6c0-6.8-2.5-10.6-6.6-14.8
					c-5.4-5.4-13.9-8.6-24.5-8.6h-37v86.1h9.7v-38.7h24.5l28.9,38.7h12L1060.6,642.1z M1024.8,633.9v-29.6h26
					c13.6,0,21.5,5.5,21.5,14.5v0.2c0,9.4-9.2,14.9-21.8,14.9L1024.8,633.9z"/>
			</g>
		</g>
	</g>
</g>
<g id="Layer_2">
</g>
</svg>
